<svg width="100" height="100" viewBox="0 0 100 100" fill="none" xmlns="http://www.w3.org/2000/svg">
<g clip-path="url(#clip0_68_139)">
<rect width="100" height="100" fill="white"/>
<path d="M-11.0974 57H11.5026V58.5C11.5026 59.5609 11.0811 60.5783 10.331 61.3284C9.58085 62.0786 8.56343 62.5 7.50256 62.5H-7.09741C-8.15828 62.5 -9.1757 62.0786 -9.92584 61.3284C-10.676 60.5783 -11.0974 59.5609 -11.0974 58.5V57Z" fill="url(#paint0_linear_68_139)" stroke="black" stroke-width="2" stroke-linecap="round" stroke-linejoin="round"/>
<path d="M8.80263 50.9H11.4027C11.805 50.8866 12.2058 50.9543 12.5814 51.099C12.957 51.2437 13.2997 51.4626 13.5889 51.7425C13.8782 52.0224 14.1081 52.3577 14.2651 52.7284C14.4221 53.099 14.5029 53.4975 14.5026 53.9C14.5026 54.7222 14.176 55.5106 13.5947 56.092C13.0133 56.6734 12.2248 57 11.4027 57H-10.9974C-11.3999 57.0002 -11.7983 56.9194 -12.169 56.7625C-12.5396 56.6055 -12.8749 56.3755 -13.1548 56.0862C-13.4348 55.797 -13.6536 55.4544 -13.7984 55.0788C-13.9431 54.7032 -14.0108 54.3023 -13.9974 53.9C-14.0113 53.5023 -13.9433 53.1059 -13.7974 52.7356C-13.6516 52.3653 -13.4311 52.029 -13.1497 51.7476C-12.8683 51.4662 -12.532 51.2457 -12.1617 51.0999C-11.7914 50.9541 -11.3951 50.886 -10.9974 50.9H-2.19734" fill="url(#paint1_linear_68_139)"/>
<path d="M8.80263 50.9H11.4027C11.805 50.8866 12.2058 50.9543 12.5814 51.099C12.957 51.2437 13.2997 51.4626 13.5889 51.7425C13.8782 52.0224 14.1081 52.3577 14.2651 52.7284C14.4221 53.099 14.5029 53.4975 14.5026 53.9C14.5026 54.7222 14.176 55.5106 13.5947 56.092C13.0133 56.6734 12.2248 57 11.4027 57H-10.9974C-11.3999 57.0002 -11.7983 56.9194 -12.169 56.7625C-12.5396 56.6055 -12.8749 56.3755 -13.1548 56.0862C-13.4348 55.797 -13.6536 55.4544 -13.7984 55.0788C-13.9431 54.7032 -14.0108 54.3023 -13.9974 53.9C-14.0113 53.5023 -13.9433 53.1059 -13.7974 52.7356C-13.6516 52.3653 -13.4311 52.029 -13.1497 51.7476C-12.8683 51.4662 -12.532 51.2457 -12.1617 51.0999C-11.7914 50.9541 -11.3951 50.886 -10.9974 50.9H-2.19734" stroke="black" stroke-width="2" stroke-linecap="round" stroke-linejoin="round"/>
<path d="M14.5026 48.8999C14.4951 49.4274 14.2795 49.9307 13.9027 50.2999C13.7273 50.4962 13.5111 50.6516 13.2692 50.7553C13.0273 50.859 12.7657 50.9083 12.5026 50.8999H7.30265L3.90266 54.7999L0.502633 50.8999H-12.0973C-12.3555 50.9003 -12.611 50.848 -12.8483 50.7463C-13.0856 50.6447 -13.2997 50.4957 -13.4775 50.3085C-13.6553 50.1214 -13.7931 49.8999 -13.8825 49.6578C-13.9718 49.4156 -14.011 49.1577 -13.9974 48.8999C-14.011 48.6421 -13.9718 48.3842 -13.8825 48.1421C-13.7931 47.8999 -13.6553 47.6785 -13.4775 47.4913C-13.2997 47.3041 -13.0856 47.1552 -12.8483 47.0535C-12.611 46.9518 -12.3555 46.8995 -12.0973 46.8999H12.5026C13.0331 46.8999 13.5418 47.1106 13.9169 47.4857C14.292 47.8608 14.5026 48.3695 14.5026 48.8999Z" fill="white" stroke="black" stroke-width="2" stroke-linecap="round" stroke-linejoin="round"/>
<path d="M-2.49744 38H3.00256C5.28343 38 7.47087 38.9061 9.08368 40.5189C10.6965 42.1317 11.6026 44.3191 11.6026 46.6H-11.0974C-11.0974 44.3191 -10.1914 42.1317 -8.57855 40.5189C-6.96574 38.9061 -4.7783 38 -2.49744 38Z" fill="url(#paint2_linear_68_139)" stroke="black" stroke-width="2" stroke-linecap="round" stroke-linejoin="round"/>
<path d="M5.40259 42L6.70258 43.4" stroke="black" stroke-width="2" stroke-linecap="round" stroke-linejoin="round"/>
<path d="M-0.597412 42.6001L0.802582 41.3" stroke="black" stroke-width="2" stroke-linecap="round" stroke-linejoin="round"/>
<path d="M60.2 89.9963L61.7 91.4963C62.6588 92.4692 63.1963 93.7803 63.1963 95.1463C63.1963 96.5123 62.6588 97.8233 61.7 98.7963L61.1 99.3963C58.309 102.12 54.8659 104.083 51.1 105.096L46.9 106.096L45.5 104.696L44.1 103.296L45.2 99.0963C46.1338 95.327 48.109 91.8963 50.9 89.1963L51.5 88.4963C52.4729 87.5375 53.784 87 55.15 87C56.516 87 57.8271 87.5375 58.8 88.4963L60.2 89.9963Z" fill="url(#paint3_linear_68_139)" stroke="black" stroke-width="2" stroke-linecap="round" stroke-linejoin="round"/>
<path d="M88.9026 57H111.503V58.5C111.503 59.5609 111.081 60.5783 110.331 61.3284C109.581 62.0786 108.563 62.5 107.503 62.5H92.9026C91.8417 62.5 90.8243 62.0786 90.0742 61.3284C89.324 60.5783 88.9026 59.5609 88.9026 58.5V57Z" fill="url(#paint4_linear_68_139)" stroke="black" stroke-width="2" stroke-linecap="round" stroke-linejoin="round"/>
<path d="M108.803 50.9H111.403C111.805 50.8866 112.206 50.9543 112.581 51.099C112.957 51.2437 113.3 51.4626 113.589 51.7425C113.878 52.0224 114.108 52.3577 114.265 52.7284C114.422 53.099 114.503 53.4975 114.503 53.9C114.503 54.7222 114.176 55.5106 113.595 56.092C113.013 56.6734 112.225 57 111.403 57H89.0026C88.6001 57.0002 88.2017 56.9194 87.831 56.7625C87.4604 56.6055 87.1251 56.3755 86.8452 56.0862C86.5652 55.797 86.3464 55.4544 86.2016 55.0788C86.0569 54.7032 85.9892 54.3023 86.0026 53.9C85.9887 53.5023 86.0567 53.1059 86.2026 52.7356C86.3484 52.3653 86.5689 52.029 86.8503 51.7476C87.1317 51.4662 87.468 51.2457 87.8383 51.0999C88.2086 50.9541 88.6049 50.886 89.0026 50.9H97.8027" fill="url(#paint5_linear_68_139)"/>
<path d="M108.803 50.9H111.403C111.805 50.8866 112.206 50.9543 112.581 51.099C112.957 51.2437 113.3 51.4626 113.589 51.7425C113.878 52.0224 114.108 52.3577 114.265 52.7284C114.422 53.099 114.503 53.4975 114.503 53.9C114.503 54.7222 114.176 55.5106 113.595 56.092C113.013 56.6734 112.225 57 111.403 57H89.0026C88.6001 57.0002 88.2017 56.9194 87.831 56.7625C87.4604 56.6055 87.1251 56.3755 86.8452 56.0862C86.5652 55.797 86.3464 55.4544 86.2016 55.0788C86.0569 54.7032 85.9892 54.3023 86.0026 53.9C85.9887 53.5023 86.0567 53.1059 86.2026 52.7356C86.3484 52.3653 86.5689 52.029 86.8503 51.7476C87.1317 51.4662 87.468 51.2457 87.8383 51.0999C88.2086 50.9541 88.6049 50.886 89.0026 50.9H97.8027" stroke="black" stroke-width="2" stroke-linecap="round" stroke-linejoin="round"/>
<path d="M114.503 48.8999C114.495 49.4274 114.279 49.9307 113.903 50.2999C113.727 50.4962 113.511 50.6516 113.269 50.7553C113.027 50.859 112.766 50.9083 112.503 50.8999H107.303L103.903 54.7999L100.503 50.8999H87.9027C87.6445 50.9003 87.389 50.848 87.1517 50.7463C86.9144 50.6447 86.7003 50.4957 86.5225 50.3085C86.3447 50.1214 86.2069 49.8999 86.1175 49.6578C86.0282 49.4156 85.989 49.1577 86.0026 48.8999C85.989 48.6421 86.0282 48.3842 86.1175 48.1421C86.2069 47.8999 86.3447 47.6785 86.5225 47.4913C86.7003 47.3041 86.9144 47.1552 87.1517 47.0535C87.389 46.9518 87.6445 46.8995 87.9027 46.8999H112.503C113.033 46.8999 113.542 47.1106 113.917 47.4857C114.292 47.8608 114.503 48.3695 114.503 48.8999Z" fill="white" stroke="black" stroke-width="2" stroke-linecap="round" stroke-linejoin="round"/>
<path d="M97.5026 38H103.003C105.283 38 107.471 38.9061 109.084 40.5189C110.696 42.1317 111.603 44.3191 111.603 46.6H88.9026C88.9026 44.3191 89.8086 42.1317 91.4214 40.5189C93.0343 38.9061 95.2217 38 97.5026 38Z" fill="url(#paint6_linear_68_139)" stroke="black" stroke-width="2" stroke-linecap="round" stroke-linejoin="round"/>
<path d="M94.6027 42.5L95.8027 43.8" stroke="black" stroke-width="2" stroke-linecap="round" stroke-linejoin="round"/>
<path d="M99.4026 42.6001L100.803 41.3" stroke="black" stroke-width="2" stroke-linecap="round" stroke-linejoin="round"/>
<path d="M46.8 5.99622L43.9 8.89624C44.3322 9.39864 44.5792 10.0339 44.6 10.6962C44.5741 11.3683 44.2888 12.0042 43.804 12.4704C43.3192 12.9366 42.6726 13.1967 42 13.1962C41.337 13.1962 40.7011 12.9328 40.2322 12.464C39.7634 11.9951 39.5 11.3593 39.5 10.6962C38.837 10.6962 38.2011 10.4328 37.7322 9.96399C37.2634 9.49515 37 8.85927 37 8.19623C36.9995 7.52365 37.2597 6.87703 37.7259 6.39221C38.192 5.90739 38.8279 5.62212 39.5 5.59625C40.1624 5.61707 40.7976 5.86406 41.3 6.2962L44.2 3.39624" stroke="black" stroke-width="2" stroke-linecap="round" stroke-linejoin="round"/>
<path d="M60.2 -10.0037L61.7 -8.50372C62.6588 -7.53081 63.1963 -6.21967 63.1963 -4.8537C63.1963 -3.48773 62.6588 -2.17665 61.7 -1.20374L61.1 -0.603699C58.309 2.12028 54.8659 4.08284 51.1 5.09631L46.9 6.09631L45.5 4.69629L44.1 3.29626L45.2 -0.903687C46.1338 -4.67301 48.109 -8.10369 50.9 -10.8037L51.5 -11.5037C52.4729 -12.4625 53.784 -13 55.15 -13C56.516 -13 57.8271 -12.4625 58.8 -11.5037L60.2 -10.0037Z" fill="url(#paint7_linear_68_139)" stroke="black" stroke-width="2" stroke-linecap="round" stroke-linejoin="round"/>
</g>
<defs>
<linearGradient id="paint0_linear_68_139" x1="-11.0188" y1="57.8554" x2="-8.05917" y2="68.1358" gradientUnits="userSpaceOnUse">
<stop stop-color="#FFA654"/>
<stop offset="1" stop-color="#F26702"/>
</linearGradient>
<linearGradient id="paint1_linear_68_139" x1="14.5026" y1="57" x2="12.0045" y2="45.3312" gradientUnits="userSpaceOnUse">
<stop stop-color="#FFD15C"/>
<stop offset="1" stop-color="#F3AF00"/>
</linearGradient>
<linearGradient id="paint2_linear_68_139" x1="-11.0185" y1="39.3375" x2="-4.52192" y2="53.833" gradientUnits="userSpaceOnUse">
<stop stop-color="#FFA654"/>
<stop offset="1" stop-color="#F26702"/>
</linearGradient>
<linearGradient id="paint3_linear_68_139" x1="44.1664" y1="89.97" x2="63.223" y2="106.079" gradientUnits="userSpaceOnUse">
<stop stop-color="#FFA654"/>
<stop offset="1" stop-color="#F26702"/>
</linearGradient>
<linearGradient id="paint4_linear_68_139" x1="88.9812" y1="57.8554" x2="91.9408" y2="68.1358" gradientUnits="userSpaceOnUse">
<stop stop-color="#FFA654"/>
<stop offset="1" stop-color="#F26702"/>
</linearGradient>
<linearGradient id="paint5_linear_68_139" x1="114.503" y1="57" x2="112.005" y2="45.3312" gradientUnits="userSpaceOnUse">
<stop stop-color="#FFD15C"/>
<stop offset="1" stop-color="#F3AF00"/>
</linearGradient>
<linearGradient id="paint6_linear_68_139" x1="88.9815" y1="39.3375" x2="95.4781" y2="53.833" gradientUnits="userSpaceOnUse">
<stop stop-color="#FFA654"/>
<stop offset="1" stop-color="#F26702"/>
</linearGradient>
<linearGradient id="paint7_linear_68_139" x1="44.1664" y1="-10.03" x2="63.223" y2="6.07891" gradientUnits="userSpaceOnUse">
<stop stop-color="#FFA654"/>
<stop offset="1" stop-color="#F26702"/>
</linearGradient>
<clipPath id="clip0_68_139">
<rect width="100" height="100" fill="white"/>
</clipPath>
</defs>
</svg>
